<svg version="1.1" id="Layer_1" xmlns="http://www.w3.org/2000/svg" xmlns:xlink="http://www.w3.org/1999/xlink" x="0px" y="0px"
	 width="100%" viewBox="0 0 1024 1024" enable-background="new 0 0 1024 1024" xml:space="preserve">
<path fill="#000000" opacity="1.000000" stroke="none" 
	d="
M861.255432,363.988342 
	C871.581360,400.797760 873.775879,438.010162 873.244812,475.609802 
	C872.762329,509.767853 873.496460,543.942200 873.101868,578.102478 
	C872.385559,640.116028 856.777710,698.048889 825.260559,751.717896 
	C801.678162,791.875122 771.786255,826.515625 735.343079,855.227661 
	C697.498047,885.044312 654.877441,905.594055 608.301636,918.443542 
	C570.096863,928.983582 531.308960,931.861145 492.062805,930.181091 
	C442.656982,928.066040 395.702820,915.549744 351.648193,893.270020 
	C286.342957,860.243408 234.729324,812.190552 198.392120,748.514832 
	C177.500717,711.905518 164.326859,672.359009 157.629913,630.670532 
	C154.634827,612.026245 153.506683,593.317505 153.593369,574.452209 
	C153.782532,533.288025 153.930740,492.119904 153.573059,450.957916 
	C153.215103,409.763702 162.173645,370.393555 175.510452,331.786346 
	C187.478912,297.140259 205.236923,265.559875 227.319824,236.464432 
	C267.988708,182.880890 320.371246,144.978210 383.355927,121.669029 
	C412.528992,110.872742 442.716400,104.723442 473.669159,101.434341 
	C495.815765,99.080986 517.954529,99.081276 540.036926,99.938011 
	C573.278259,101.227692 605.596008,108.277100 637.101074,119.044548 
	C671.769409,130.893112 703.711609,147.765610 732.793945,170.076538 
	C755.126282,187.209137 774.853760,206.933929 792.428406,228.897720 
	C824.588562,269.089813 848.186768,313.619263 861.255432,363.988342 
M753.947144,820.446472 
	C761.056641,813.183594 768.611267,806.301147 775.199646,798.592896 
	C806.089661,762.451782 829.468445,722.070312 843.219788,676.345642 
	C853.723389,641.419861 860.298157,605.953857 859.785156,569.279602 
	C859.370239,539.619812 859.486633,509.946411 859.814270,480.283997 
	C860.184692,446.749420 858.846130,413.468353 851.334290,380.561127 
	C833.996826,304.609406 794.765991,242.067795 736.152710,191.408920 
	C701.530823,161.485535 662.175720,140.047104 618.175903,127.020561 
	C574.470703,114.081230 529.918457,111.091743 484.723907,114.118980 
	C455.864441,116.052055 427.548828,121.114197 400.084381,130.120377 
	C322.984955,155.402908 262.695496,202.263962 220.327148,271.683838 
	C184.260498,330.778473 165.541916,394.776917 166.291321,464.259827 
	C166.553726,488.589752 166.158630,512.926453 166.384216,537.257141 
	C166.563309,556.569702 165.841125,575.875244 167.063156,595.202942 
	C168.527527,618.363586 171.985062,641.137939 177.870865,663.548340 
	C192.611893,719.675354 222.477493,767.215027 261.330048,809.541870 
	C283.716919,833.930603 310.139862,853.056396 338.551422,870.005981 
	C385.030518,897.734192 435.324127,912.690002 488.866547,916.388306 
	C519.592834,918.510498 550.373535,916.858826 580.835693,910.735352 
	C647.091125,897.416748 704.873047,868.106323 753.947144,820.446472 
z"/>
<path fill="#000000" opacity="1.000000" stroke="none" 
	d="
M582.567261,199.245026 
	C577.020081,199.867111 571.845886,198.408310 566.769226,200.210022 
	C558.364014,203.193008 553.653442,210.263687 548.431641,216.659515 
	C544.556030,221.406464 540.745911,226.273056 538.269592,232.037628 
	C536.892578,235.243164 537.985413,236.704666 540.668091,238.434097 
	C543.696167,240.386200 544.699036,238.572540 546.223145,236.642456 
	C558.008057,221.718307 573.465759,215.954865 592.127197,218.665085 
	C597.081116,219.384552 597.438049,220.594269 595.026062,224.905380 
	C589.002014,235.672424 580.774170,243.757477 568.352661,246.576416 
	C562.280823,247.954346 556.041138,248.063614 550.036682,246.561752 
	C543.638977,244.961578 539.458679,248.653183 535.286133,252.043457 
	C532.771179,254.086975 534.138489,257.104828 537.849609,258.224884 
	C542.779236,259.712646 547.859436,260.598450 552.665833,262.617645 
	C575.901978,272.379089 593.316284,288.250854 604.190674,311.116028 
	C605.047974,312.918762 606.029541,314.663635 606.992615,316.413788 
	C607.222473,316.831451 607.610229,317.162231 608.292480,317.964691 
	C609.801697,313.280884 607.168396,309.295074 607.394775,305.199249 
	C607.942749,295.284973 602.975708,286.589691 601.388611,277.166931 
	C599.344299,265.029877 600.558960,252.758392 605.980530,242.080109 
	C609.711182,234.732101 611.784973,227.332321 613.912537,219.628525 
	C618.942688,201.414795 632.802795,190.020584 651.138916,188.156708 
	C655.148254,187.749161 656.770264,189.086243 656.180603,193.135056 
	C653.376465,212.389603 644.199463,227.153778 626.243469,235.741226 
	C624.748840,236.456024 623.152588,237.403641 621.583069,237.444031 
	C611.709717,237.698074 610.184448,245.402802 609.567383,252.290878 
	C608.741028,261.514954 608.610901,270.925781 610.223267,280.190704 
	C610.565735,282.158600 610.565613,282.158630 613.316833,284.663483 
	C618.369690,265.988678 630.554382,253.700531 647.107971,245.308838 
	C649.169983,244.263519 649.154358,244.232712 652.293579,244.003448 
	C653.261414,245.828903 652.246765,247.542191 651.802856,249.214401 
	C647.424316,265.710541 640.451843,280.984131 628.937256,293.717133 
	C623.835876,299.358398 621.381470,305.788757 620.617004,312.939301 
	C619.954346,319.137939 617.216492,325.039581 618.206543,331.472260 
	C618.863586,335.741119 620.751282,335.211823 623.082520,332.923615 
	C625.939880,330.118988 628.791382,327.179993 630.481140,323.541840 
	C637.874084,307.624390 647.139832,292.809601 656.672119,278.132324 
	C660.606323,272.074768 662.822876,265.702332 663.031982,258.103607 
	C663.611877,237.029617 679.575317,220.499786 699.691528,218.503738 
	C704.416260,218.034943 705.383972,219.698746 705.347290,223.959824 
	C705.229980,237.586731 697.815063,247.432053 688.907288,256.494812 
	C684.344543,261.136902 679.258972,265.231201 673.357422,268.114502 
	C670.464172,269.528046 668.844360,271.602936 667.821289,274.710358 
	C665.792725,280.871826 663.262146,286.867920 660.944275,292.934387 
	C660.403198,294.350616 659.776855,295.892212 661.002563,297.152832 
	C662.256653,298.442627 663.815918,297.752838 665.203247,297.201599 
	C670.463318,295.111664 675.676941,292.901581 680.967773,290.894043 
	C683.632446,289.883026 684.507324,287.546143 685.731567,285.393036 
	C694.945923,269.187836 715.508728,261.068542 733.126709,266.666290 
	C738.358154,268.328491 738.825500,269.393341 736.377502,274.072632 
	C726.675842,292.617035 706.865295,302.309509 686.222778,298.534882 
	C683.746643,298.082092 681.729614,298.629791 679.638428,299.972717 
	C672.205261,304.746185 664.913635,309.665619 658.170227,315.429657 
	C652.850098,319.977234 646.841553,323.614288 640.536499,326.725067 
	C636.620361,328.657196 636.212463,329.329102 634.912231,334.452118 
	C638.568176,336.704529 642.172363,336.157745 645.616455,334.018768 
	C660.270325,324.918030 676.421021,320.825897 693.442017,319.772217 
	C696.037598,319.611511 697.730347,318.346985 699.587402,316.921051 
	C713.763855,306.036011 735.289429,305.968567 748.971558,316.740784 
	C750.014038,317.561554 751.059814,318.423737 751.917114,319.426422 
	C756.525879,324.817078 756.175232,326.950256 750.159790,330.787537 
	C732.279785,342.193298 715.003479,341.730530 697.618896,329.357330 
	C696.401428,328.490814 695.341187,327.325592 693.618530,327.865265 
	C686.003357,330.250793 677.982544,331.234161 670.623962,334.493103 
	C669.448730,335.013550 668.131226,335.497925 667.457581,337.897125 
	C675.532959,341.096802 681.928772,347.894135 691.632690,347.913666 
	C711.101074,347.952881 730.260925,360.524017 735.899597,376.654633 
	C738.478027,384.030884 737.554932,385.166199 729.947632,385.008972 
	C708.911194,384.574158 693.058899,375.986359 684.211121,356.263855 
	C683.141235,353.879028 681.414612,352.622101 679.009827,352.078339 
	C669.120056,349.842133 659.268250,347.408081 649.318726,345.478394 
	C643.858337,344.419403 639.112915,346.245178 634.567871,349.862213 
	C619.528748,361.830536 607.212891,375.737732 597.931580,392.820221 
	C584.430054,417.670258 562.688354,432.133911 535.226135,438.287262 
	C526.681641,440.201782 526.709961,440.695984 526.285461,449.723389 
	C524.705811,483.315125 516.160950,514.401306 493.138184,540.164978 
	C483.372498,551.093262 471.871552,559.297913 457.477936,562.926392 
	C454.898438,563.576538 453.080780,564.400391 452.157562,567.327148 
	C444.945618,590.191040 427.426208,601.299744 405.387848,604.907288 
	C381.696625,608.785278 358.703125,604.686584 337.150238,593.411499 
	C331.913910,590.672119 329.607971,587.301575 329.677124,581.314880 
	C329.798218,570.830505 329.159882,560.337708 328.871124,549.847656 
	C328.845337,548.909546 328.527405,547.819275 329.931854,546.937500 
	C332.581207,548.027344 333.574097,550.832092 335.195343,552.982666 
	C341.908386,561.887512 347.038269,571.932556 354.698486,580.156494 
	C370.173370,596.770142 395.338287,598.798096 413.623718,589.242859 
	C426.786713,582.364441 433.188812,563.358948 421.620880,548.892395 
	C411.831360,536.649963 399.349335,528.035278 385.872009,520.496887 
	C372.935028,513.260742 360.286102,505.597198 348.262695,496.826019 
	C318.016235,474.761017 330.109528,435.283936 358.229797,424.537201 
	C373.122650,418.845551 388.247681,418.976990 403.507629,420.123688 
	C415.505829,421.025269 426.943512,424.826172 438.131378,429.271454 
	C441.718506,430.696716 443.258240,432.876495 443.219788,436.792511 
	C443.108521,448.122833 443.288910,459.455933 443.332275,470.788025 
	C443.336487,471.905640 443.517944,473.105255 442.685181,474.037781 
	C440.821808,474.254700 440.350708,472.818512 439.680573,471.758911 
	C435.050964,464.438538 430.208832,457.237610 425.906128,449.728363 
	C416.108826,432.629700 398.839783,428.000397 381.709747,430.932037 
	C379.584686,431.295715 377.473358,431.787201 375.393005,432.355988 
	C365.530853,435.052460 358.699310,441.429047 356.704010,451.249512 
	C354.602203,461.594177 358.369385,470.779877 366.776398,477.396729 
	C379.397858,487.330658 393.852692,494.357574 407.632904,502.451416 
	C412.943573,505.570618 418.283234,508.672485 423.370453,512.133911 
	C437.014771,521.417664 450.231140,531.139404 453.381378,549.421143 
	C462.873169,547.095642 470.524841,542.797729 477.315735,536.725403 
	C488.764771,526.487793 492.996887,512.587524 496.416351,498.456268 
	C500.579346,481.252441 501.737946,463.655212 502.032166,445.985291 
	C502.111847,441.201965 500.042328,439.114990 495.494568,438.335083 
	C471.898041,434.288300 452.500122,422.692200 436.874481,404.783142 
	C429.090912,395.862091 422.982788,385.697815 416.378174,375.885193 
	C408.528931,364.223389 398.456543,354.386627 386.173065,347.267639 
	C379.994171,343.686615 373.192444,345.444275 366.633118,346.595947 
	C363.851471,347.084351 361.132507,347.960541 358.342163,348.363281 
	C348.829010,349.736389 342.153564,353.486084 337.315552,363.078003 
	C328.531494,380.493378 311.716980,385.097443 293.431519,385.190033 
	C289.734344,385.208740 288.080078,383.532440 289.399994,379.353882 
	C294.381500,363.583649 315.455902,347.625793 332.016479,347.758514 
	C337.089417,347.799194 341.386749,346.908051 345.368866,343.542145 
	C349.263733,340.250000 354.416107,338.951294 359.308472,336.311798 
	C355.866425,333.452576 351.994934,333.077972 348.462891,331.936218 
	C346.251404,331.221313 343.913177,330.893188 341.711426,330.154327 
	C334.722046,327.809113 328.951538,328.677704 322.179596,332.841125 
	C304.473206,343.727234 285.972198,339.144531 271.044617,326.402863 
	C268.957886,324.621674 269.459015,322.903412 271.068146,321.286835 
	C285.390533,306.898529 306.957520,304.963257 322.190338,313.521790 
	C322.335449,313.603271 322.537598,313.664581 322.604492,313.792236 
	C326.763397,321.726196 334.522369,320.012756 341.252441,320.467468 
	C354.889038,321.388794 367.244446,325.794403 378.787994,332.909271 
	C382.014954,334.898224 385.406799,337.057739 389.464752,334.032288 
	C389.289337,330.654205 387.117188,328.558838 384.704590,326.828156 
	C373.336914,318.673462 361.880096,310.643066 350.482758,302.529541 
	C346.454285,299.661743 342.552094,298.277405 337.129517,299.019409 
	C318.888885,301.515472 295.568909,288.792358 287.136169,272.734375 
	C285.248077,269.138916 285.558197,267.193359 289.928162,265.899231 
	C310.118958,259.919861 331.905457,270.741394 340.617401,284.303345 
	C343.227356,288.366333 346.353577,291.013123 350.929962,292.260712 
	C355.373657,293.472137 359.044952,296.736603 363.586029,297.475098 
	C365.577881,295.514252 364.222290,293.785645 363.664856,292.191162 
	C361.468140,285.907745 358.896820,279.756714 357.255890,273.279755 
	C356.570618,270.574860 354.888092,268.762085 352.318054,267.389099 
	C336.323334,258.844299 325.984161,245.772324 321.514374,228.146866 
	C321.148468,226.704010 320.827698,225.218140 320.752563,223.738724 
	C320.472046,218.213943 321.764435,217.105042 327.080627,218.115952 
	C348.165955,222.125458 361.365326,234.738159 362.727142,256.540833 
	C363.718079,272.405365 371.772308,283.781067 380.420837,295.286499 
	C387.368652,304.529419 394.198975,313.660339 397.841949,324.800537 
	C398.827728,327.815125 400.459503,330.601471 402.602661,332.962036 
	C405.361847,336.001160 407.882874,335.331085 409.158691,331.431976 
	C409.762207,329.587494 409.625641,327.868286 408.887604,326.091827 
	C406.040833,319.239594 404.667664,312.061707 404.730103,304.668671 
	C404.761932,300.899597 402.960449,298.412415 400.228729,296.240082 
	C388.260284,286.722351 381.828705,273.764221 377.475128,259.521454 
	C375.881805,254.308777 374.275696,249.100037 372.360474,242.864136 
	C383.823273,244.006317 390.656281,250.888229 397.641479,257.589478 
	C404.723511,264.383575 409.878815,272.365326 412.105896,281.807922 
	C414.697601,281.471832 414.551392,280.089050 414.685547,279.029327 
	C416.242432,266.732330 419.473724,254.454620 414.440765,242.144455 
	C413.200562,239.111038 411.983246,237.394287 408.281982,236.886551 
	C391.165680,234.538422 375.348541,218.130539 371.764191,199.541794 
	C371.293274,197.099426 370.835846,194.622253 370.738617,192.146805 
	C370.542908,187.164200 371.677002,186.229980 376.550171,186.859924 
	C395.034760,189.249420 409.550659,202.373779 413.110291,220.826828 
	C414.363464,227.323181 416.972534,232.983322 419.658295,238.882996 
	C427.417419,255.927032 429.092010,273.450378 421.298340,291.050568 
	C418.066101,298.349884 416.882965,305.804230 417.490082,313.580566 
	C417.907227,313.759338 418.324341,313.938110 418.741486,314.116852 
	C421.337799,309.859253 424.056396,305.670807 426.510223,301.332611 
	C440.620117,276.386993 462.527405,262.854156 490.164062,257.630676 
	C492.421478,257.204010 495.003326,257.093140 495.618317,254.161453 
	C496.235413,251.219742 493.904510,250.233536 492.015717,248.831070 
	C486.501007,244.736237 480.987915,243.700592 473.934021,245.456787 
	C456.710846,249.744797 439.324677,240.912308 431.501190,225.039078 
	C429.383636,220.742661 429.880493,219.442871 434.597961,218.496674 
	C451.484894,215.109512 465.775787,220.087982 477.734406,232.238510 
	C479.436554,233.967972 480.551514,236.449127 483.822205,235.333755 
	C487.829071,233.967377 488.732666,232.218262 486.302551,228.721039 
	C478.091034,216.903580 468.797302,206.055222 457.451813,197.064407 
	C455.772461,195.733612 454.310547,195.760910 452.397095,196.196930 
	C433.968933,200.396225 418.208160,189.908157 414.888824,171.322662 
	C413.827393,165.379623 414.539612,164.436523 420.460602,164.674225 
	C437.612427,165.362732 450.075256,173.572723 457.982819,188.653290 
	C459.317688,191.199005 460.910919,192.931442 463.495972,194.006287 
	C479.506012,200.663239 491.129913,212.199493 500.115509,226.760544 
	C501.503357,229.009552 502.566437,232.940964 505.825500,232.181290 
	C508.939484,231.455429 507.975250,227.475815 508.818817,224.904358 
	C510.468872,219.874496 508.341949,216.375320 505.650879,212.189148 
	C494.634979,195.053085 493.411652,176.589615 500.665436,157.758514 
	C502.976685,151.758347 506.820496,146.340408 510.046295,140.703705 
	C511.953705,137.370728 514.124329,137.033691 516.416443,140.430984 
	C530.927429,161.938507 534.369690,183.200729 521.003967,209.172928 
	C517.165588,216.631485 516.748230,223.633743 517.434753,231.250671 
	C517.769592,234.965652 519.871643,235.695877 522.927734,233.453171 
	C524.832275,232.055542 526.212769,230.178787 527.453247,228.173721 
	C530.958557,222.507889 534.639465,216.988281 538.871826,211.797714 
	C544.811584,204.513046 551.796692,198.858597 560.758728,195.843246 
	C564.120361,194.712204 566.284607,192.698257 567.679077,189.281631 
	C571.835022,179.098755 581.245605,174.895035 590.392944,170.991425 
	C596.024231,168.588318 601.906982,165.658707 608.485657,166.746368 
	C610.604187,181.987885 600.212341,195.104218 582.567261,199.245026 
M564.724243,282.796722 
	C540.567017,267.860535 514.631104,263.785889 487.111328,270.537842 
	C438.333344,282.505463 405.568939,338.699066 442.122406,391.004913 
	C459.136383,415.350922 483.698761,427.182892 513.622253,427.005554 
	C545.342773,426.817566 570.279663,413.989685 586.763550,386.471222 
	C596.291565,370.565063 601.526184,353.274475 599.004761,334.546661 
	C595.996460,312.202911 583.757019,295.592163 564.724243,282.796722 
z"/>
<path fill="#000000" opacity="1.000000" stroke="none" 
	d="
M606.886597,601.343689 
	C566.971313,586.296997 547.609253,556.642212 544.292297,515.330078 
	C541.371643,515.893921 539.728088,517.929626 537.987000,519.554504 
	C530.441528,526.596497 522.717468,533.732483 517.156616,542.339722 
	C505.909058,559.748962 505.427368,578.160461 514.944641,596.721802 
	C516.356323,599.475037 518.627625,601.953247 518.256897,605.336975 
	C517.274841,606.520020 516.075500,606.398254 514.992676,605.949829 
	C494.248779,597.359253 484.650269,585.896667 490.259521,563.212585 
	C493.952850,548.276611 503.500214,536.975281 513.533936,525.924011 
	C524.602661,513.732666 536.615417,502.266113 544.903320,487.812103 
	C549.621460,479.583710 553.636841,470.949951 558.410767,462.756287 
	C574.890320,434.471710 599.927429,421.162201 632.351929,419.454468 
	C657.089294,418.151581 677.727478,427.096741 696.087402,442.227875 
	C712.206909,455.512665 720.276184,473.761322 724.111633,493.867706 
	C729.289001,521.009277 725.330078,546.686768 709.347717,569.633789 
	C694.790161,590.534851 674.697693,602.523560 649.115479,605.522217 
	C634.747314,607.206360 620.936218,605.722839 606.886597,601.343689 
M577.380310,477.814758 
	C569.509033,504.555847 569.694763,530.918396 581.308716,556.665100 
	C590.918579,577.968994 614.946655,598.028503 643.292297,593.586914 
	C660.088440,590.955139 673.937866,583.555298 683.389282,568.533997 
	C695.337036,549.545410 698.772400,528.861389 697.979492,506.938568 
	C697.256836,486.958435 692.447510,468.277191 679.830139,452.526031 
	C663.147095,431.699493 636.495483,423.324799 611.534546,436.199768 
	C594.437683,445.018433 584.140686,459.474426 577.380310,477.814758 
z"/>
<path fill="#000000" opacity="1.000000" stroke="none" 
	d="
M533.125793,641.888916 
	C548.237244,641.989380 562.840515,641.373169 577.459900,643.546997 
	C597.223206,646.485596 610.308594,659.446533 612.410461,679.348694 
	C614.244019,696.711060 609.895996,711.856567 595.769958,722.854004 
	C586.331360,730.202026 574.694641,731.680054 563.135559,732.079163 
	C551.656616,732.475403 540.153564,732.202942 528.661377,732.148682 
	C526.954224,732.140625 524.930176,732.539185 523.960205,730.482422 
	C524.013916,730.196472 524.012207,729.907104 524.079407,729.890137 
	C533.880127,727.413025 533.950928,719.842773 533.862854,711.860596 
	C533.684753,695.705750 533.885803,679.547180 533.811584,663.390625 
	C533.775208,655.461365 536.046936,646.313171 523.318787,644.243591 
	C526.776733,641.144958 529.849243,642.113159 533.125793,641.888916 
M551.033813,681.373962 
	C550.139038,691.997314 550.391479,702.645996 550.294006,713.288025 
	C550.269226,715.991638 550.653809,718.591797 551.546692,721.119263 
	C552.186462,722.930115 553.221924,724.467773 555.342163,724.615723 
	C562.683594,725.127686 569.974121,725.277161 576.776062,721.683044 
	C592.070374,713.601501 600.606934,688.010437 593.490295,671.468872 
	C586.672607,655.622070 572.288330,647.453003 554.919373,649.319885 
	C551.407043,649.697388 551.020874,651.740662 551.024353,654.447571 
	C551.035400,663.098938 551.032654,671.750366 551.033813,681.373962 
z"/>
<path fill="#000000" opacity="1.000000" stroke="none" 
	d="
M646.650391,756.657715 
	C648.687317,756.851868 650.415955,756.165833 651.818115,757.343262 
	C652.014832,758.225586 651.518188,758.843994 650.907349,758.946472 
	C642.927673,760.284790 637.661682,765.571106 632.746826,771.355103 
	C627.677856,777.320435 622.734558,783.394470 617.582947,789.286804 
	C615.215332,791.994873 614.810364,794.442627 617.374573,797.147034 
	C629.552917,809.991516 639.605652,824.586243 651.033020,838.049927 
	C653.621765,841.099976 656.763062,843.414490 660.441162,845.613953 
	C649.025085,847.684937 637.775085,846.867981 626.146606,846.439392 
	C631.818909,842.196899 629.469238,838.221436 626.769104,834.395508 
	C621.001709,826.223389 615.014282,818.208496 607.996643,811.048218 
	C606.232666,809.248413 604.632690,806.702209 601.278625,808.010132 
	C598.033142,809.275879 596.706543,811.582153 596.812927,814.975891 
	C597.037048,822.129944 597.005554,829.296997 597.433472,836.437439 
	C597.644348,839.956787 599.477478,842.748535 603.244629,843.724060 
	C604.363098,844.013794 605.549133,844.239563 605.982483,845.563293 
	C602.756714,848.015015 573.807861,847.792358 570.139526,845.292297 
	C570.246399,844.998413 570.300171,844.475769 570.471313,844.433899 
	C578.178589,842.551941 579.683716,836.834717 579.686523,829.973511 
	C579.693726,812.140747 579.853210,794.307983 579.899780,776.475159 
	C579.931396,764.352478 579.892029,764.352356 569.689514,757.375610 
	C582.355347,757.375610 593.975159,757.375610 605.487915,757.375610 
	C605.854187,758.528625 605.383362,759.151917 604.791199,759.319092 
	C597.800781,761.291870 597.087341,766.607239 597.265137,772.703979 
	C597.481201,780.115662 597.316406,787.538452 597.316406,795.301941 
	C601.179688,794.853882 603.222656,792.929382 605.229980,790.985107 
	C612.309387,784.128113 618.558838,776.535400 624.654297,768.819458 
	C629.633240,762.516785 629.539795,762.217896 623.339783,756.657715 
	C630.960205,756.657715 638.580627,756.657715 646.650391,756.657715 
z"/>
<path fill="#000000" opacity="1.000000" stroke="none" 
	d="
M378.180603,771.264099 
	C389.332855,756.775024 410.049011,750.167664 428.363739,755.043335 
	C446.941650,759.989075 458.247772,773.516846 461.545807,792.697449 
	C465.185333,813.864136 451.224945,842.617737 424.640076,847.587891 
	C394.049103,853.307129 368.851959,832.420776 369.433258,801.340820 
	C369.634338,790.592041 371.953979,780.576782 378.180603,771.264099 
M387.297150,807.152222 
	C387.848145,813.524048 389.532104,819.613342 392.418823,825.287842 
	C397.551422,835.377197 405.784302,841.135925 417.235352,840.557800 
	C428.861206,839.970947 436.894135,833.577148 440.647675,822.584595 
	C445.590973,808.107971 445.422485,793.381226 440.333588,779.029663 
	C435.280823,764.779846 422.368164,757.993530 407.725189,761.358521 
	C397.337219,763.745605 393.047882,772.221985 389.613617,781.039429 
	C386.464325,789.125305 386.958984,797.721680 387.297150,807.152222 
z"/>
<path fill="#000000" opacity="1.000000" stroke="none" 
	d="
M686.331238,655.394409 
	C699.200073,641.177490 715.205872,637.145569 732.870972,641.187134 
	C749.186401,644.919800 760.703064,655.044617 765.504944,671.634338 
	C771.625671,692.780640 763.333984,716.596313 745.280579,727.800171 
	C730.001587,737.282227 713.842834,736.775513 698.184265,728.686096 
	C683.313843,721.003845 676.997559,707.948730 676.575684,691.464050 
	C676.244202,678.509216 677.624817,666.193604 686.331238,655.394409 
M741.033630,656.477722 
	C729.684631,642.764709 705.684143,642.686523 697.520203,663.295288 
	C690.794250,680.274231 691.799561,697.249329 700.110413,713.467163 
	C705.378601,723.747375 714.382446,728.076904 725.844849,726.613831 
	C736.366943,725.270752 742.879639,718.773254 746.286072,709.127502 
	C750.006653,698.591919 750.491455,687.697083 749.065857,676.650879 
	C748.137634,669.458313 746.705811,662.525879 741.033630,656.477722 
z"/>
<path fill="#000000" opacity="1.000000" stroke="none" 
	d="
M488.243164,799.362366 
	C491.771698,789.082153 495.174866,779.174194 498.528412,769.249512 
	C500.661133,762.937622 500.362488,762.399048 493.952026,759.780945 
	C493.379425,759.547119 492.911499,759.057007 492.268097,758.594727 
	C493.464294,756.015808 495.901489,756.311279 497.810333,755.813049 
	C501.018066,754.975830 504.460724,754.840759 507.516449,753.662903 
	C512.985046,751.555115 515.806396,753.933777 518.196228,758.503723 
	C524.995544,771.505615 530.467346,785.070923 535.625916,798.771179 
	C539.316833,808.573547 542.865295,818.430237 546.400452,828.290283 
	C548.860657,835.152039 551.965515,841.485840 559.184082,844.685425 
	C556.356140,847.659729 528.621338,848.261169 523.232605,845.652893 
	C525.659363,842.919983 529.938782,841.877686 529.975891,837.152710 
	C530.016541,831.973145 528.695190,827.302246 526.387268,822.810059 
	C524.815735,819.751404 522.408936,818.108887 518.793274,818.137878 
	C511.637268,818.195312 504.478577,818.106140 497.323090,817.968567 
	C493.871185,817.902161 491.696930,819.425598 490.408936,822.570374 
	C488.833435,826.417114 486.973633,830.184204 486.364777,834.328979 
	C485.513428,840.124756 486.956787,842.179138 492.579346,843.710144 
	C493.386597,843.929932 494.209351,844.038635 494.614014,844.908142 
	C492.173462,847.803223 468.600616,848.356079 464.152954,845.617432 
	C464.209473,845.299500 464.200439,844.740479 464.341095,844.699829 
	C472.738068,842.274841 475.978149,835.553284 478.448700,828.067139 
	C481.575867,818.591309 484.872955,809.171509 488.243164,799.362366 
M497.097290,803.283752 
	C495.223602,809.201416 495.760651,809.913696 501.921112,810.064697 
	C506.073425,810.166504 510.226410,810.335999 514.372131,810.589233 
	C520.690918,810.975098 521.539917,809.981018 519.219910,803.880920 
	C517.270386,798.755005 515.040588,793.730103 512.784607,788.728271 
	C511.118378,785.033997 509.745819,781.146545 506.742279,777.290649 
	C502.688904,785.900757 500.406769,794.390564 497.097290,803.283752 
z"/>
<path fill="#000000" opacity="1.000000" stroke="none" 
	d="
M431.706085,702.904419 
	C431.764801,689.756348 431.910919,677.094055 431.866089,664.432556 
	C431.837494,656.353394 434.297791,647.133423 422.533997,644.053162 
	C426.091827,641.498230 454.718079,641.091309 458.953827,643.012573 
	C458.885559,643.315552 458.892242,643.821167 458.723541,643.888733 
	C449.914062,647.415222 448.395752,649.590576 448.354462,659.026550 
	C448.287384,674.354248 448.532623,689.689758 448.120819,705.007812 
	C447.654602,722.348938 456.508972,726.463745 471.192017,726.530701 
	C483.894867,726.588623 492.976868,719.654663 495.219543,709.403748 
	C495.605682,707.638855 495.638245,705.771667 495.639832,703.951538 
	C495.652100,689.623230 495.644653,675.294739 495.585205,660.966614 
	C495.555115,653.716431 496.013153,646.133789 485.794769,644.599182 
	C489.745605,641.236938 513.578064,640.849976 517.655579,643.671875 
	C517.346069,644.039246 517.106812,644.617126 516.733093,644.723633 
	C508.501251,647.070801 507.251953,649.936768 507.583679,658.857239 
	C508.176453,674.796326 508.517914,690.856262 506.483154,706.666260 
	C504.474213,722.275269 492.483826,732.747192 476.673431,734.132751 
	C470.090515,734.709656 463.413788,734.851440 456.785004,733.426880 
	C440.470490,729.921082 432.052795,719.977478 431.706085,702.904419 
z"/>
<path fill="#000000" opacity="1.000000" stroke="none" 
	d="
M311.604919,727.680115 
	C298.231781,736.911804 284.281769,735.823975 270.235565,731.025330 
	C259.956451,727.513611 260.024414,727.246094 259.799591,716.473267 
	C259.720123,712.666504 259.786865,708.856689 259.786865,704.410706 
	C264.006866,706.409363 265.285431,710.157837 267.239929,713.151611 
	C271.094635,719.056091 275.729919,723.711121 282.694244,725.861694 
	C287.314453,727.288452 291.948364,727.449158 296.508362,726.453613 
	C305.150482,724.566772 308.559601,715.752380 304.047516,707.455505 
	C300.813202,701.508301 295.295807,697.941833 289.808624,694.473999 
	C283.334442,690.382385 276.669861,686.594788 270.497498,682.031677 
	C263.355316,676.751709 259.504028,670.205566 261.749268,660.963440 
	C264.049896,651.493286 268.354584,644.150818 278.647827,641.370361 
	C290.193481,638.251709 301.028412,639.878235 311.678314,644.659973 
	C314.899994,646.106506 316.536316,648.282227 316.370819,652.026794 
	C316.131714,657.438416 316.309662,662.868408 316.309662,668.415771 
	C313.581421,668.223083 313.133972,666.164124 312.156067,664.783691 
	C309.943817,661.660828 307.937988,658.392273 305.744110,655.255798 
	C300.345428,647.537598 294.464325,645.907715 283.208496,648.070435 
	C278.347717,649.004333 275.872864,652.363281 274.738220,656.887878 
	C273.625122,661.326599 275.602966,664.739624 278.812958,667.451111 
	C286.755646,674.160400 296.150909,678.622681 304.971191,683.961548 
	C314.667267,689.830444 320.677673,697.713928 320.272461,709.517883 
	C320.026825,716.673706 317.619843,722.848999 311.604919,727.680115 
z"/>
<path fill="#000000" opacity="1.000000" stroke="none" 
	d="
M381.291443,677.000000 
	C381.287781,689.985413 381.448944,702.473938 381.217194,714.955078 
	C381.087524,721.937500 382.600830,727.523560 390.362030,729.339294 
	C388.011322,732.768982 360.372925,733.613342 355.329437,730.714905 
	C355.414886,730.401611 355.442230,729.852417 355.601532,729.810974 
	C363.423065,727.778320 364.071350,721.903748 364.111816,715.125549 
	C364.229065,695.490662 363.421265,675.848389 364.572968,656.217407 
	C364.907227,650.520020 363.195190,649.007996 357.575592,649.372009 
	C348.236572,649.976929 342.752563,656.040710 338.081940,663.263916 
	C337.056000,664.850525 336.788055,667.110413 333.859711,667.914978 
	C333.246674,659.090271 334.348206,650.406921 332.736908,641.836243 
	C359.508820,640.935364 385.726929,643.600708 411.778625,640.258850 
	C411.778625,648.504700 411.778625,657.077209 411.778625,665.139648 
	C408.004272,661.915405 404.326385,658.880737 400.771118,655.708557 
	C396.567932,651.958252 392.097076,649.094910 386.120697,649.222351 
	C382.716553,649.294922 381.290619,650.682068 381.314758,654.026489 
	C381.368835,661.517151 381.306763,669.008789 381.291443,677.000000 
z"/>
<path fill="#000000" opacity="1.000000" stroke="none" 
	d="
M635.824219,657.186890 
	C635.552307,650.193176 635.552307,650.193176 626.071655,642.346008 
	C638.772278,641.344055 650.259094,641.477051 662.142822,642.194763 
	C661.648560,643.570312 661.601746,644.096313 661.420776,644.147400 
	C652.947876,646.542542 652.872314,652.954224 652.721802,660.242249 
	C652.374695,677.051453 652.405884,693.856873 652.334534,710.663940 
	C652.281616,723.141907 652.327209,723.142090 661.849121,729.839844 
	C659.255493,732.886963 632.289185,733.355652 627.388000,730.431580 
	C627.548462,729.479431 628.237854,729.028381 629.068481,728.816711 
	C634.141663,727.523376 635.883545,723.835083 635.895081,719.080383 
	C635.921753,708.095581 635.819519,697.110413 635.804138,686.125427 
	C635.790894,676.636353 635.825378,667.147278 635.824219,657.186890 
z"/>
<path fill="#000000" opacity="1.000000" stroke="none" 
	d="
M485.415466,163.814362 
	C489.495544,172.566238 487.959717,181.106216 486.224457,189.640091 
	C485.592377,192.748657 483.405579,192.891586 481.336090,191.491028 
	C469.882385,183.739471 460.864288,174.302673 460.702393,159.323135 
	C460.654388,154.881775 460.189789,150.389877 461.258148,145.292007 
	C472.138000,147.972137 480.973846,152.604980 485.415466,163.814362 
z"/>
<path fill="#000000" opacity="1.000000" stroke="none" 
	d="
M556.936157,181.890320 
	C552.339783,187.349548 545.798462,189.638489 540.931030,194.361893 
	C538.518372,192.672531 538.527039,190.185211 538.440308,188.019821 
	C537.726318,170.192520 542.058777,158.337311 559.130676,150.281189 
	C564.545898,147.725800 565.980835,148.915741 565.818237,154.743652 
	C565.543701,164.585571 564.100342,173.962952 556.936157,181.890320 
z"/>
<path fill="#000000" opacity="1.000000" stroke="none" 
	d="
M590.654480,328.691193 
	C593.652283,340.045593 592.989868,350.953064 589.296021,361.515869 
	C583.218506,378.895172 574.436279,394.644043 559.450684,406.078003 
	C525.501465,431.981110 473.264984,423.117218 449.464386,387.568054 
	C441.396759,375.518066 434.926300,362.823792 433.741638,348.121582 
	C432.193604,328.909058 440.182281,313.390625 452.432739,299.193268 
	C467.459137,281.778748 487.223328,276.242401 508.934570,274.698639 
	C523.966919,273.629791 537.902039,277.375397 551.493225,283.524353 
	C571.422607,292.540955 584.429016,307.342712 590.654480,328.691193 
M440.353729,347.146545 
	C441.298096,352.203033 441.995697,357.320435 443.226593,362.306183 
	C451.690674,396.589783 487.323944,416.307953 515.950378,414.930298 
	C543.178711,413.619904 572.271606,394.724792 581.708008,367.532166 
	C591.871277,338.245300 582.030823,308.624969 556.652771,292.315094 
	C535.532959,278.741974 512.598328,276.770111 489.022949,282.823578 
	C460.613647,290.118134 437.581024,321.474091 440.353729,347.146545 
z"/>
<path fill="#000000" opacity="1.000000" stroke="none" 
	d="
M483.178894,292.979919 
	C510.380798,282.605377 535.712402,285.327332 558.281677,303.323181 
	C572.499451,314.659882 579.932312,330.873413 577.814026,348.672760 
	C574.189331,379.130219 550.743103,406.785217 514.230042,407.296356 
	C478.114136,407.801941 449.044800,379.886475 448.208893,343.709869 
	C447.704926,321.899384 463.365509,300.771301 483.178894,292.979919 
M544.357666,391.865356 
	C550.823608,387.623749 556.553711,382.542847 560.939209,376.167511 
	C576.073242,354.166473 576.755371,328.659546 556.191345,309.236481 
	C540.436768,294.356079 521.418335,290.131409 500.298340,293.297119 
	C467.399689,298.228302 441.080933,334.452515 462.347809,371.804657 
	C478.768402,400.645050 513.914001,409.464111 544.357666,391.865356 
z"/>
<path fill="#000000" opacity="1.000000" stroke="none" 
	d="
M469.913025,322.041351 
	C480.568512,303.186310 506.330994,297.293884 525.637817,302.282867 
	C539.098450,305.761139 551.266357,311.817322 558.186462,324.390533 
	C567.014832,340.430786 564.667480,356.264526 554.240295,370.886932 
	C533.371399,400.152161 490.419312,399.842377 471.340057,370.048004 
	C461.559723,354.774933 460.267700,338.589966 469.913025,322.041351 
M554.444824,331.165894 
	C553.313110,329.131012 552.349854,326.978485 551.023682,325.079346 
	C536.864197,304.802063 503.558838,299.814148 484.031982,315.035431 
	C474.664551,322.337433 469.284058,332.083069 469.384705,343.843567 
	C469.528412,360.634766 477.336823,373.862366 492.199646,381.622742 
	C507.487457,389.605042 523.116150,388.871460 537.659729,379.020660 
	C553.689636,368.163147 560.692200,348.406616 554.444824,331.165894 
z"/>
<path fill="#000000" opacity="1.000000" stroke="none" 
	d="
M544.579224,358.305054 
	C533.891602,381.260162 501.381165,382.906891 487.599823,367.587219 
	C478.609497,357.593384 476.128387,346.249329 480.690887,333.810486 
	C485.208588,321.493774 495.451538,316.343445 507.738129,314.748962 
	C515.652466,313.721893 523.289185,315.015015 530.527649,318.584015 
	C545.360779,325.897705 551.073975,341.611115 544.579224,358.305054 
M527.802917,368.381866 
	C529.859863,366.702301 532.101318,365.202576 533.943176,363.313324 
	C544.260925,352.730164 543.962402,339.105988 534.180481,328.056122 
	C524.321106,316.918793 502.956451,317.761902 491.974640,327.728149 
	C485.288757,333.795746 483.144775,340.907990 484.810028,349.254547 
	C488.818970,369.348206 508.593353,378.347260 527.802917,368.381866 
z"/>
<path fill="#000000" opacity="1.000000" stroke="none" 
	d="
M502.295044,329.976624 
	C512.872253,325.355957 523.543884,327.497192 529.889343,335.252563 
	C535.015015,341.517090 534.865417,349.355072 529.508423,355.215820 
	C521.910889,363.527771 508.021179,364.895538 499.509674,358.169983 
	C489.679474,350.402435 490.789398,337.706451 502.295044,329.976624 
M520.050781,334.328583 
	C518.145386,333.785797 516.270386,333.065155 514.328979,332.732513 
	C507.638214,331.586151 499.951569,337.119324 499.326996,343.414886 
	C498.745911,349.272125 502.652771,354.744019 508.604675,356.408966 
	C515.613159,358.369507 523.377930,355.273529 526.114868,349.427338 
	C528.624817,344.066010 526.634094,338.587250 520.050781,334.328583 
z"/>
<path fill="#000000" opacity="1.000000" stroke="none" 
	d="
M515.286316,350.631897 
	C512.289062,351.792572 509.943878,350.960449 507.898529,349.423920 
	C504.845642,347.130463 505.259125,344.514099 508.796783,343.086884 
	C509.865112,342.655884 511.191376,342.685760 512.097717,342.064362 
	C515.078186,340.020905 517.758118,339.730438 519.476257,343.367554 
	C521.287415,347.201721 519.067078,349.249969 515.286316,350.631897 
z"/>
</svg>